<svg xmlns="http://www.w3.org/2000/svg" version="1.1" xmlns:xlink="http://www.w3.org/1999/xlink" xmlns:svgjs="http://svgjs.dev/svgjs" width="100%" height="100%" viewBox="0 0 1000 600"><rect width="1000" height="600" x="0" y="0" fill="#f2f2f2"/><g><rect width="333.3333333333333" height="333.3333333333333" rx="13.333333333333334" ry="13.333333333333334" y="211.47794204241998" fill="#404040" transform="matrix(0.6604819679522332,0,0,0.6604819679522334,0,50.242304841493066)" x="189.25564575195312"/><path d="M302.8448833653142 406.4938748665412L229.16067414313852 372.19635481241755L229.16067414313852 360.4521183956599L302.8448833653142 325.8501181381388L302.8448833653142 342.44428922329814L246.777028768275 367.25942580018796L246.777028768275 365.3890474078895L302.8448833653142 389.5082292341566L302.8448833653142 406.4938748665412ZM342.1445781895384 453.14459174421734L326.3333561988295 453.14459174421734L369.87402528466055 303.14459439907404L385.6852472753694 303.14459439907404L342.1445781895384 453.14459174421734ZM409.021480007186 406.4938748665412L482.68394064340475 372.19635481241755L482.68394064340475 360.4521183956599L409.021480007186 325.8501181381388L409.021480007186 342.44428922329814L465.06758601826823 367.25942580018796L465.06758601826823 365.3890474078895L409.021480007186 389.5082292341566L409.021480007186 406.4938748665412Z " fill="#f2f2f2" transform="matrix(0.6604819679522332,0,0,0.6604819679522334,0,50.242304841493066)"/><path d="M640.1597302494465 418.19962910063464L623.3358308111046 418.19962910063464L623.3358308111046 331.3089054827502Q619.2870886565504 332.370226241711 615.5135037358009 333.2939683837695Q611.7202647269223 334.217710525828 607.7697930130128 334.98421996285526L607.7697930130128 334.98421996285526L605.9223087288957 325.23579225091885Q609.3224659751961 324.23343375634477 613.3122458653636 322.54318217725904Q617.32167984366 320.83327651004436 621.1738811169253 318.867867697154Q625.0260823901904 316.8828047961347 628.0724660501705 314.93705007137316Q631.1188497101507 312.99129534661165 632.671522672334 311.6351632657173L632.671522672334 311.6351632657173L640.1597302494465 312.91267899409604L640.1597302494465 418.19962910063464ZM709.1455795818995 419.3395662121111L709.1455795818995 419.3395662121111Q698.7485669617092 419.3395662121111 691.437246177757 414.79947185433434Q684.1062713056758 410.27903158468644 679.5858310360279 402.5353208618982Q675.045736678251 394.7719560509812 673.0410196891028 384.8466415458846Q671.0166486118258 374.90167295265917 671.154227228728 364.0722703936332L671.154227228728 364.0722703936332Q671.370422198146 348.01488039231856 676.5984096404345 336.2224275149762Q681.8460511708518 324.4496287257627 690.7296990051163 318.0030878194822Q699.5936927512521 311.57620100133056 710.855485249114 311.57620100133056L710.855485249114 311.57620100133056Q721.4686928387222 311.57620100133056 728.6424350057722 315.7428676846582Q735.8358312609511 319.9291884561148 740.140076561181 327.24050924006707Q744.4639759495399 334.57148411214826 746.291806145528 344.16267911905334Q748.1392904296449 353.7342200378297 748.0606740771293 364.6422389493713L748.0606740771293 364.6422389493713Q747.9230954602269 380.9158239201039 743.0488816042588 393.21928308879774Q738.1550136601617 405.54239634562055 729.4679067071861 412.4409812788658Q720.7611456660817 419.3395662121111 709.1455795818995 419.3395662121111ZM709.656585873251 404.4810755866597L709.656585873251 404.4810755866597Q720.2697934628591 404.6776164679487 725.5763972576632 394.7719560509812Q730.8830010524673 384.86629563401357 730.8830010524673 365.48736473891427L730.8830010524673 365.48736473891427Q730.8830010524673 354.16660997666554 728.68174318203 345.40088667117436Q726.4804853115927 336.6155092775542 721.8617746013003 331.56440862842595Q717.2234098028789 326.4936538911687 709.9317431070556 326.4936538911687L709.9317431070556 326.4936538911687Q699.4561141343497 326.4936538911687 693.9726235463855 336.1241570743317Q688.4891329584214 345.7546602574946 688.4891329584214 363.50230183789495L688.4891329584214 363.50230183789495Q688.4891329584214 374.4692830138233 690.7493530932453 383.74601261066607Q693.0292273161981 393.00308811937975 697.6872462027484 398.64381141237527Q702.3649191774275 404.2648806172417 709.656585873251 404.4810755866597ZM822.3531272043864 419.3395662121111L822.3531272043864 419.3395662121111Q815.4938504473989 419.3395662121111 809.3814290393098 418.2978995412792Q803.2493535430917 417.27588695857617 798.8664918903461 415.8607926132951Q794.4836302376006 414.445698268014 792.5771836890968 413.2467988921509L792.5771836890968 413.2467988921509L796.0363031997839 399.72478625946496Q798.7289132734438 401.2971133097773 802.7580013398691 402.771169919445Q806.7870894062944 404.2648806172417 811.6023409978759 405.20827684742915Q816.4175925894574 406.1713271657454 821.3704227979412 406.1713271657454L821.3704227979412 406.1713271657454Q831.0598882454908 406.1713271657454 836.150297070877 402.9087485363474Q841.2603599843919 399.6658239950782 841.2603599843919 392.29554094673927L841.2603599843919 392.29554094673927Q841.2603599843919 387.3427107382554 838.7053285276345 383.9818616682129Q836.150297070877 380.6210125981703 831.0991964217486 377.65324529070574Q826.0480957726203 374.6854779832413 818.4616177548634 371.0691257675229L818.4616177548634 371.0691257675229Q812.0347309367118 367.8851634906405 805.9812717930093 363.4433395735082Q799.9278126493069 358.98186156824704 796.0363031997839 352.96771060080243Q792.144793750261 346.9535596333577 792.144793750261 339.17054073431177L792.144793750261 339.17054073431177Q792.144793750261 331.52510045216815 795.1518692339832 326.31676709800854Q798.1589447177055 321.12808783197795 803.2493535430917 317.9441255550955Q808.3594164566067 314.76016327821304 814.6094164815981 313.34506893293195Q820.8790705947185 311.92997458765086 827.4631901179014 311.92997458765086L827.4631901179014 311.92997458765086Q837.0740392129354 311.92997458765086 843.3830015023136 313.7971129598967Q849.6723097035629 315.68390542027157 852.4238820416094 317.51173561625956L852.4238820416094 317.51173561625956L849.1809575003404 330.6013583101096Q845.564605284622 328.34113817528566 840.7296996049116 326.5329620674265Q835.8751398370723 324.7247859595674 827.4631901179014 324.7247859595674L827.4631901179014 324.7247859595674Q822.2941649399996 324.7247859595674 817.911303287254 326.0809180404617Q813.5087875463796 327.4173960332272 810.8358315608486 330.18862245940267Q808.1432214871887 332.9401947974492 808.1432214871887 337.26409418580806L808.1432214871887 337.26409418580806Q808.1432214871887 342.1383080417763 810.147938476337 345.4205407593032Q812.1723095536141 348.72242756495916 816.692749823262 351.59192443177915Q821.2328441810389 354.4417672104702 828.583473141249 358.27431439560644L828.583473141249 358.27431439560644Q833.890076936053 361.025886733653 839.0591021139547 364.111578569891Q844.2281272918565 367.177616318 848.434102151442 370.93154715062064Q852.6400770110274 374.6854779832413 855.1558002915272 379.5400377510806Q857.6715235720268 384.37494343079095 857.6715235720268 390.60528936765354L857.6715235720268 390.60528936765354Q857.6715235720268 400.2357925508164 853.1707373905078 406.62337119271024Q848.6896052971177 413.0306039227329 840.7296996049116 416.1752580233576Q832.7697939127055 419.3395662121111 822.3531272043864 419.3395662121111ZM922.3334735161209 453.14459779382594L922.3334735161209 427.83013228379764L922.6282848380545 410.69176743539333L922.3334735161209 404.3238428816285L922.3334735161209 350.70749046597837L923.8861464783043 348.9975847987638L924.3185364171402 342.0596916892607L938.6070584868534 339.38673570372976L938.6070584868534 453.14459779382594L922.3334735161209 453.14459779382594ZM901.0480960725179 419.3395662121111L901.0480960725179 419.3395662121111Q892.7540708821205 419.3395662121111 885.658945067586 415.2318617931702Q878.5441651649228 411.1241573742293 874.1809576003061 402.771169919445Q869.8374041238184 394.41818246466084 869.8374041238184 381.6233710927444L869.8374041238184 381.6233710927444Q869.8374041238184 368.80890563269895 874.7902343323021 359.0801320088915Q879.743064540786 349.35135838508404 888.6267123750506 343.86786779711986Q897.5103602093152 338.3843772091557 909.4600457916888 338.3843772091557L909.4600457916888 338.3843772091557Q916.7517124875121 338.3843772091557 922.4710521330232 340.1139369644992Q928.2100458666632 341.8631508079716 929.4875615950419 343.0620501838348L929.4875615950419 343.0620501838348L922.3334735161209 353.45906280402494Q920.1518697338125 351.611578519908 916.6141338706097 350.9040313472675Q913.0763980074071 350.1964841746269 908.2611464158256 350.1964841746269L908.2611464158256 350.1964841746269Q902.2469954483811 350.1964841746269 897.3924356805417 353.53767915654055Q892.5575300008313 356.85922005032535 889.6487249577535 363.4433395735082Q886.7399199146757 370.0078050085622 886.6809576502891 379.71692454424067L886.6809576502891 379.71692454424067Q886.4647626808711 393.573056675118 891.4962092418705 400.01959758139856Q896.5080017147411 406.44648439955006 905.5685363421658 406.44648439955006L905.5685363421658 406.44648439955006Q911.0913351063878 406.44648439955006 915.5135049353912 404.4024592341441Q919.9356747643947 402.3584340687381 922.3334735161209 400.43233343210545L922.3334735161209 400.43233343210545L924.8885049728784 408.510163653085Q923.2572156581793 410.27903158468644 920.3877187913595 412.814408953315Q917.5182219245394 415.36944041007257 912.8602030379891 417.3545033110918Q908.18253006331 419.3395662121111 901.0480960725179 419.3395662121111ZM984.1848888577817 419.3395662121111L984.1848888577817 419.3395662121111Q976.4608322231225 419.3395662121111 971.7241969840566 416.9221133722559Q966.9875617449907 414.5243146205296 964.5111466407488 410.02352843901065Q962.034731536507 405.54239634562055 961.1502975707062 399.31205040875795Q960.2658636049056 393.08170447189536 960.2658636049056 385.5148805422674L960.2658636049056 385.5148805422674L960.2658636049056 339.38673570372976L976.5394485756381 339.38673570372976L976.5394485756381 385.37730192536503Q976.5394485756381 394.71299378659444 977.993851097177 399.09585543933997Q979.428599530587 403.4787170920856 982.5142913668249 404.75623282046433Q985.5999832030627 406.03374854884316 990.5528134115466 406.03374854884316L990.5528134115466 406.03374854884316Q993.4419643664955 406.03374854884316 996.7438511721514 405.1493145830425Q1000.0260838896784 404.2648806172417 1002.9348889327562 403.0266730651208Q1005.824039887705 401.7884655129999 1007.5339455549197 400.64852840152344L1007.5339455549197 400.64852840152344L1007.5339455549197 339.38673570372976L1023.8075305256522 339.38673570372976L1023.8075305256522 419.3395662121111L1016.2996688604107 419.3395662121111Q1013.0370902310128 419.3395662121111 1011.1306436825091 418.3765158937948Q1009.2241971340054 417.41346557547854 1009.2241971340054 413.5219561259555L1009.2241971340054 413.5219561259555L1009.2241971340054 408.0188114498625L1009.4993543678102 411.1241573742293Q1006.3153920909276 413.2467988921509 1002.0504549669554 415.1139372643968Q997.7658637548544 417.00072972477153 993.0881907801752 418.16032092437683Q988.4301718936249 419.3395662121111 984.1848888577817 419.3395662121111ZM1066.810675351694 419.3395662121111L1066.810675351694 419.3395662121111Q1059.7352036252887 419.3395662121111 1054.2517130373244 416.5290316096779Q1048.76822244936 413.7381510953735 1045.6235683487355 408.60843409372956Q1042.4789142481109 403.4787170920856 1042.4789142481109 396.4818617181958L1042.4789142481109 396.4818617181958Q1042.4789142481109 388.9150377885678 1046.5473104907942 383.62808808189254Q1050.615706733477 378.36079246334634 1057.4749834904646 375.3930251558818L1057.4749834904646 375.3930251558818Q1062.0150778482416 373.54554087176484 1067.3216816430456 372.46456602467515Q1072.6282854378496 371.3639370894565 1077.9348892326539 370.89223897436284Q1083.2414930274576 370.440194947398 1087.7619332971058 370.440194947398L1087.7619332971058 370.440194947398L1091.162090543406 374.7640943357569L1087.7619332971058 380.4834339812679Q1085.0103609590592 380.4834339812679 1081.138505597665 380.8765157438461Q1077.2863043244 381.26959750642413 1073.5323734917793 382.0754151197092Q1069.7980967472874 382.9008868211231 1067.1644489380142 384.15874846137297L1067.1644489380142 384.15874846137297Q1063.567750810425 385.79003777607204 1061.1502979705697 388.3450692328296Q1058.7524992188435 390.8804466014582 1058.7524992188435 395.4205409592349L1058.7524992188435 395.4205409592349Q1058.7524992188435 401.3560755741639 1062.0347319363705 404.4024592341441Q1065.3366187420263 407.44884289412425 1071.8421219126935 407.44884289412425L1071.8421219126935 407.44884289412425Q1075.1636628064782 407.44884289412425 1078.5638200527787 406.44648439955006Q1081.963977299079 405.46377999310494 1084.4797005795788 404.1862642647261Q1086.9757697719497 402.9087485363474 1087.7619332971058 402.00466048241776L1087.7619332971058 402.00466048241776L1091.0245119265037 405.46377999310494L1088.6856754391642 411.55654731306515Q1085.5606754266685 414.38673600362733 1079.703757164255 416.86315110786927Q1073.8271848137128 419.3395662121111 1066.810675351694 419.3395662121111ZM1104.1141346203538 363.9346917767308L1104.1141346203538 418.19962910063464L1088.6856754391642 418.19962910063464L1088.6856754391642 406.44648439955006L1087.7619332971058 406.44648439955006L1087.7619332971058 363.01094963467233Q1087.7619332971058 356.07305652516925 1084.1259269932584 353.8521445666031Q1080.4702666012822 351.611578519908 1073.7485684611972 351.611578519908L1073.7485684611972 351.611578519908Q1069.2870904559359 351.611578519908 1064.5504552168702 352.49601248570866Q1059.813819977804 353.38044645150933 1055.8436941757657 354.69727035614596Q1051.8932224618559 356.0140942607825 1049.7705809439344 357.35057225354797L1049.7705809439344 357.35057225354797L1045.938033758798 345.5974275524634Q1047.569323073497 344.61472314601815 1052.2076878719183 342.8458552144168Q1056.8460526703398 341.0769872828155 1063.0370904309445 339.6225847612766Q1069.2281281915493 338.1681822397377 1075.3012414233806 338.1681822397377L1075.3012414233806 338.1681822397377Q1084.1455810813873 338.1681822397377 1090.6314301639256 340.2318614932726Q1097.0976251583352 342.2758866586786 1100.5960528452802 347.8379935991585Q1104.1141346203538 353.38044645150933 1104.1141346203538 363.9346917767308L1104.1141346203538 363.9346917767308ZM1141.2603611839822 360.3183395610125L1141.2603611839822 360.3183395610125L1140.2580026894082 349.567553354502Q1141.319323448369 347.3662954840647 1144.7194806946695 344.7129935866627Q1148.1196379409698 342.0596916892607 1152.758002739391 340.153245140757Q1157.3767134496836 338.2467985922533 1162.1919650412651 338.2467985922533L1162.1919650412651 338.2467985922533Q1164.884575114925 338.2467985922533 1166.8303298396863 338.4629935616713Q1168.776084564448 338.67918853108915 1169.6998267065064 339.22950299869854L1169.6998267065064 339.22950299869854L1169.6998267065064 354.5203835629858Q1168.6385059475456 353.95041500724756 1166.4765562533662 353.3214841871227Q1164.3146065591868 352.67289927886884 1159.4993549676053 352.67289927886884L1159.4993549676053 352.67289927886884Q1155.1164933148598 352.67289927886884 1151.6180656279148 353.91110683098975Q1148.1196379409698 355.1493143831108 1145.5056442198256 356.9181823147121Q1142.8719964105526 358.68705024631345 1141.2603611839822 360.3183395610125ZM1142.105486973525 418.19962910063464L1125.8319020027927 418.19962910063464L1125.8319020027927 339.524314320632L1139.68803413367 339.524314320632L1140.8279712451463 349.567553354502L1142.105486973525 355.503087969431L1142.105486973525 418.19962910063464ZM1212.9977828544818 419.3395662121111L1212.9977828544818 419.3395662121111Q1196.016650711109 419.3395662121111 1186.818537466782 408.56912591747175Q1177.6204242224546 397.81833971096125 1177.6204242224546 378.7145660496666L1177.6204242224546 378.7145660496666Q1177.6204242224546 367.2562326705156 1181.6888204651377 358.19569804309083Q1185.757216707821 349.13516341566606 1193.7171224000272 343.82855962086205Q1201.6770280922333 338.52195582605793 1213.2729400882865 338.3843772091557L1213.2729400882865 338.3843772091557Q1219.2281287913445 338.2467985922533 1224.4561162336329 340.09428287637024Q1229.7037577640501 341.92211307235834 1233.7328458304755 345.6367357287212Q1237.761933896901 349.35135838508404 1240.140078560498 355.0117357662084Q1242.4985691359668 360.67211314733277 1242.7147641053846 368.2389370769607L1242.7147641053846 368.2389370769607Q1242.7147641053846 372.700415082222 1242.6361477528692 376.19884276916684Q1242.5771854884822 379.71692454424067 1242.0072169327443 382.38988052977163L1242.0072169327443 382.38988052977163L1187.0936947005864 382.38988052977163L1188.5087890458676 372.0714842620971L1227.4238835410974 372.0714842620971Q1227.7776571274178 366.41110688097274 1226.7556445447146 361.34035214371545Q1225.7336319620115 356.2892514945871 1222.3727828919689 353.1445973939625Q1219.0119338219263 349.9999432933379 1212.4278142987437 349.9999432933379L1212.4278142987437 349.9999432933379Q1206.9050155345217 349.9999432933379 1202.522153881776 353.0659810414469Q1198.1392922290304 356.15167287768486 1195.7414934773042 363.4433395735082Q1193.324040637449 370.71535218120266 1193.7564305762849 383.3922390243457L1193.7564305762849 383.3922390243457Q1194.1691664269918 392.29554094673927 1197.3531287038743 397.464566124641Q1200.5370909807566 402.63359130254275 1205.7061161586585 404.83484917297994Q1210.8751413365603 407.0164529552883 1217.2430658903252 407.0164529552883L1217.2430658903252 407.0164529552883Q1219.935675963985 407.0164529552883 1223.827185413508 406.4268303114212Q1227.7186948630308 405.8175535794252 1231.3547011668782 404.8545032611089Q1235.0103615588544 403.91110703092147 1236.9168081073578 402.771169919445L1236.9168081073578 402.771169919445L1240.0221540317248 412.1068617806744Q1237.4081603105806 414.2295032985961 1232.9073741290615 415.8607926132951Q1228.4262420356715 417.49208192799415 1223.178600505254 418.4158240700526Q1217.9506130629657 419.3395662121111 1212.9977828544818 419.3395662121111ZM1324.7902361316876 418.19962910063464L1309.361776950498 418.19962910063464L1309.361776950498 407.7240001279289L1308.5166511609552 407.3112642772219L1308.5166511609552 351.55261625552134L1309.0866197166936 351.1202263166854L1308.5166511609552 335.5541885185935L1308.5166511609552 303.1445971940308L1324.7902361316876 303.1445971940308L1324.7902361316876 418.19962910063464ZM1287.3688523342546 419.3395662121111L1287.3688523342546 419.3395662121111Q1279.074827143857 419.3395662121111 1271.9797013293228 415.2318617931702Q1264.8649214266595 411.1241573742293 1260.5017138620426 402.771169919445Q1256.158160385555 394.41818246466084 1256.158160385555 381.6233710927444L1256.158160385555 381.6233710927444Q1256.158160385555 368.80890563269895 1261.1109905940386 359.0801320088915Q1266.0638208025225 349.35135838508404 1274.9474686367873 343.86786779711986Q1283.831116471052 338.3843772091557 1295.7808020534255 338.3843772091557L1295.7808020534255 338.3843772091557Q1303.0724687492486 338.3843772091557 1308.0252989577327 340.1139369644992Q1312.9781291662164 341.8631508079716 1314.314607158982 343.0620501838348L1314.314607158982 343.0620501838348L1308.5166511609552 353.45906280402494Q1306.3940096430335 351.611578519908 1302.8955819560886 350.9040313472675Q1299.3971542691438 350.1964841746269 1294.5819026775623 350.1964841746269L1294.5819026775623 350.1964841746269Q1288.5677517101178 350.1964841746269 1283.7131919422784 353.53767915654055Q1278.878286262568 356.85922005032535 1275.9694812194903 363.4433395735082Q1273.0606761764122 370.0078050085622 1273.0017139120257 379.71692454424067L1273.0017139120257 379.71692454424067Q1272.7855189426077 393.573056675118 1277.8169655036072 400.01959758139856Q1282.8287579764776 406.44648439955006 1291.8892926039025 406.44648439955006L1291.8892926039025 406.44648439955006Q1297.4120913681245 406.44648439955006 1301.7556448446123 404.4024592341441Q1306.1188524092288 402.3584340687381 1308.5166511609552 400.43233343210545L1308.5166511609552 400.43233343210545L1311.209261234615 408.510163653085Q1309.4993555674002 410.27903158468644 1306.6691668768383 412.814408953315Q1303.8389781862759 415.36944041007257 1299.1809592997258 417.3545033110918Q1294.5032863250467 419.3395662121111 1287.3688523342546 419.3395662121111Z " fill="#404040" transform="matrix(0.6604819679522332,0,0,0.6604819679522334,0,50.242304841493066)"/></g></svg>