<svg height="460pt" preserveAspectRatio="xMidYMid meet" viewBox="0 0 633 460" width="633pt" xmlns="http://www.w3.org/2000/svg"><path d="m0 2300v-2300h3165 3165v2300 2300h-3165-3165zm5655 2221c93-41 147-114 164-221 7-43 11-579 11-1608v-1542l-317 2-318 3v746 747l75 44c91 54 125 105 116 176-8 61-30 88-110 134-39 22-73 43-76 45-3 3-5 342-5 755v750l205-4c185-4 210-6 255-27zm615-4022c0-67-5-140-12-161-17-59-86-129-160-165-109-53-148-57-543-58h-360l-1 245c0 135 1 248 3 253 2 4 245 7 539 7h534z" transform="matrix(.1 0 0 -.1 0 460)"/></svg>