<svg xmlns="http://www.w3.org/2000/svg" version="1.1" xmlns:xlink="http://www.w3.org/1999/xlink" xmlns:svgjs="http://svgjs.dev/svgjs" width="100%" height="100%" viewBox="0 0 1000 600"><rect width="1000" height="600" x="0" y="0" fill="#f2f2f2"/><g><rect width="333.3333333333333" height="333.3333333333333" rx="13.333333333333334" ry="13.333333333333334" y="135.81789068206027" fill="#404040" transform="matrix(1.1003942273361818,0,0,1.100394227336182,0,-32.852241879120186)" x="113.59565734863281"/><path d="M227.1848934904805 330.83382729872335L153.50068426830484 296.5363072445997L153.50068426830484 284.79207082784205L227.1848934904805 250.19007057032098L227.1848934904805 266.7842416554804L171.1170388934413 291.5993782323701L171.1170388934413 289.72899984007165L227.1848934904805 313.84818166633875L227.1848934904805 330.83382729872335ZM266.4845883147047 377.4845441763995L250.6733663239958 377.4845441763995L294.21403540982686 227.48454683125624L310.02525740053574 227.48454683125624L266.4845883147047 377.4845441763995ZM333.3614901323523 330.83382729872335L407.02395076857107 296.5363072445997L407.02395076857107 284.79207082784205L333.3614901323523 250.19007057032098L333.3614901323523 266.7842416554804L389.40759614343455 291.5993782323701L389.40759614343455 289.72899984007165L333.3614901323523 313.84818166633875L333.3614901323523 330.83382729872335Z " fill="#f2f2f2" transform="matrix(1.1003942273361818,0,0,1.100394227336182,0,-32.852241879120186)"/><path d="M605.5962685786919 377.48454358041135L585.9766030858763 377.48454358041135L530.2623189488309 227.48454782682748L555.2252124907538 227.48454782682748L589.0656568017664 324.386214842408L595.8838384269293 348.31942381236763L603.0081424924056 324.386214842408L635.3736332273626 227.48454782682748L660.0025750162164 227.48454782682748L605.5962685786919 377.48454358041135ZM700.772518203415 376.37137107018066L679.3439473814743 376.37137107018066L679.3439473814743 227.48454782682748L700.772518203415 227.48454782682748L763.1101787763329 323.8852872128042L782.9246494584389 360.9539318034857L775.9116626439858 360.9539318034857L773.3235365576994 319.26562129534693L773.3235365576994 227.48454782682748L795.1695470709764 227.48454782682748L795.1695470709764 376.37137107018066L772.7112916770726 376.37137107018066L712.7947813139064 283.5884423424536L689.7521103521314 241.73315595778016L698.3791973064191 241.73315595778016L700.772518203415 286.8166426221226L700.772518203415 376.37137107018066Z " fill="#404040" transform="matrix(1.1003942273361818,0,0,1.100394227336182,0,-32.852241879120186)"/></g></svg>