
        <svg xmlns="http://www.w3.org/2000/svg" xmlns:xlink="http://www.w3.org/1999/xlink" version="1.1" width="3138.0516431935184" height="1159.6338028255548" viewBox="0 0 3138.0516431935184 1159.6338028255548">
			
			<g transform="scale(6.902582159675921) translate(10, 10)">
				<defs id="SvgjsDefs5786"><linearGradient id="SvgjsLinearGradient5795"><stop id="SvgjsStop5796" stop-color="#2d388a" offset="0"/><stop id="SvgjsStop5797" stop-color="#00aeef" offset="1"/></linearGradient><linearGradient id="SvgjsLinearGradient5798"><stop id="SvgjsStop5799" stop-color="#2d388a" offset="0"/><stop id="SvgjsStop5800" stop-color="#00aeef" offset="1"/></linearGradient></defs><g id="SvgjsG5787" featureKey="rZF8Vg-0" transform="matrix(1.0714285714285714,0,0,1.0714285714285714,164.42857142857142,-21.428571428571427)" fill="#fff"><g xmlns="http://www.w3.org/2000/svg" transform="translate(0,-952.36218)"><path style="opacity:1;color:;fill:url(#SvgjsLinearGradient5795);stroke:none;stroke-width:3.99999951999999980;stroke-linecap:round;stroke-linejoin:round;stroke-miterlimit:4;stroke-opacity:1;stroke-dasharray:none;stroke-dashoffset:0;marker:none;visibility:visible;display:inline;overflow:visible;enable-background:accumulate" d="M 18 20 C 15.653646 20 14 21.68328 14 24 L 14 66 L 86 66 L 86 24 C 86 21.68328 84.346352 20 82 20 L 18 20 z M 54.71875 26.96875 A 2.0002 2.0002 0 0 1 54.75 26.96875 A 2.0002 2.0002 0 0 1 54.875 26.96875 A 2.0002 2.0002 0 0 1 56.875 29.65625 L 46.875 57.65625 A 2.0002 2.0002 0 1 1 43.125 56.3125 L 53.125 28.3125 A 2.0002 2.0002 0 0 1 54.71875 26.96875 z M 37.78125 31.96875 A 2.0002 2.0002 0 0 1 37.90625 31.96875 A 2.0002 2.0002 0 0 1 38.96875 35.71875 L 26.0625 43 L 38.96875 50.25 A 2.0002 2.0002 0 1 1 37.03125 53.71875 L 21.03125 44.71875 A 2.0002 2.0002 0 0 1 21.03125 41.25 L 37.03125 32.25 A 2.0002 2.0002 0 0 1 37.78125 31.96875 z M 61.71875 31.96875 A 2.0002 2.0002 0 0 1 61.84375 31.96875 A 2.0002 2.0002 0 0 1 62.96875 32.25 L 78.96875 41.25 A 2.0002 2.0002 0 0 1 78.96875 44.71875 L 62.96875 53.71875 A 2.0002 2.0002 0 1 1 61.03125 50.25 L 73.9375 43 L 61.03125 35.71875 A 2.0002 2.0002 0 0 1 61.71875 31.96875 z M 8 73 L 8 76 C 8.0000013 78.5769 10.8794 80 14 80 L 86 80 C 89.120869 80 91.999999 78.5769 92 76 L 92 73 L 53.8125 73 L 46.1875 73 L 8 73 z " transform="translate(0,952.36218)"/></g></g><g id="SvgjsG5788" featureKey="rMoqOW-0" transform="matrix(1.2499999503294648,0,0,1.2499999503294648,-0.74999925494197,122.75000004967053)" fill="#fff"><path d="M20.3 6 l-4.58 14 l-1.86 0 l-3.42 -9.34 l-3.4 9.34 l-1.86 0 l-4.58 -14 l2.76 0 l2.86 8.84 l3.22 -8.84 l2.02 0 l3.22 8.84 l2.86 -8.84 l2.76 0 z M40.208000000000006 17.58 l6.1 0 l0 2.42 l-6.5 0 l-2.22 0 l0 -14 l2.62 0 l5.92 0 l0 2.42 l-5.92 0 l0 3.36 l4.5 0 l0 2.36 l-4.5 0 l0 3.44 z M71.376 12.26 c1.58 0.4 2.94 1.76 2.94 3.66 c0 2.54 -1.6 4.08 -5.1 4.08 l-5.32 0 l0 -14 l5.1 0 c2.88 0 4.32 1.62 4.32 3.48 c0 1.46 -0.92 2.36 -1.94 2.78 z M68.77600000000001 8.3 l-2.26 0 l0 3.18 l2.26 0 c1.32 0 1.94 -0.66 1.94 -1.6 c0 -1 -0.66 -1.58 -1.94 -1.58 z M69.096 17.7 c1.78 0 2.6 -0.74 2.6 -2.08 c0 -1.16 -0.82 -2.02 -2.68 -2.02 l-2.5 0 l0 4.1 l2.58 0 z M117.992 6 c4 0 7.08 3.1 7.08 6.94 c0 3.96 -3.08 7.06 -7.08 7.06 l-4.8 0 l0 -14 l4.8 0 z M117.97200000000001 17.52 c2.84 0 4.44 -2.06 4.44 -4.58 c0 -2.4 -1.6 -4.46 -4.44 -4.46 l-2.16 0 l0 9.04 l2.16 0 z M145.18 17.58 l6.1 0 l0 2.42 l-6.5 0 l-2.22 0 l0 -14 l2.62 0 l5.92 0 l0 2.42 l-5.92 0 l0 3.36 l4.5 0 l0 2.36 l-4.5 0 l0 3.44 z M180.088 6 l2.78 0 l-6.22 14 l-2.34 0 l-6.24 -14 l2.78 0 l4.62 10.76 z M202.576 17.58 l6.1 0 l0 2.42 l-6.5 0 l-2.22 0 l0 -14 l2.62 0 l5.92 0 l0 2.42 l-5.92 0 l0 3.36 l4.5 0 l0 2.36 l-4.5 0 l0 3.44 z M228.884 17.58 l5.68 0 l0 2.42 l-8.3 0 l0 -14 l2.62 0 l0 11.58 z M258.992 5.800000000000001 c3.84 0 7.24 2.96 7.24 7.2 s-3.4 7.2 -7.24 7.2 s-7.24 -2.96 -7.24 -7.2 s3.4 -7.2 7.24 -7.2 z M258.992 17.740000000000002 c2.44 0 4.5 -1.98 4.5 -4.74 s-2.06 -4.74 -4.5 -4.74 c-2.46 0 -4.52 1.98 -4.52 4.74 s2.06 4.74 4.52 4.74 z M288.64 6 c3.14 0 5.12 1.92 5.12 4.7 s-1.98 4.54 -5.12 4.54 l-2.2 0 l0 4.76 l-2.62 0 l0 -14 l4.82 0 z M288.5 12.98 c1.58 0 2.64 -0.68 2.64 -2.28 c0 -1.58 -1.06 -2.28 -2.64 -2.28 l-2.06 0 l0 4.56 l2.06 0 z M313.768 17.58 l6.1 0 l0 2.42 l-6.5 0 l-2.22 0 l0 -14 l2.62 0 l5.92 0 l0 2.42 l-5.92 0 l0 3.36 l4.5 0 l0 2.36 l-4.5 0 l0 3.44 z M348.296 20 l-2.78 0 l-3.12 -4.76 l-0.12 0 l-2.2 0 l0 4.76 l-2.62 0 l0 -14 l4.82 0 c3.14 0 5.12 1.92 5.12 4.7 c0 1.94 -0.96 3.38 -2.6 4.08 z M340.07599999999996 8.42 l0 4.56 l2.06 0 c1.58 0 2.64 -0.68 2.64 -2.28 c0 -1.58 -1.06 -2.28 -2.64 -2.28 l-2.06 0 z"/></g><g id="SvgjsG5789" featureKey="nameLeftFeature-0" transform="matrix(2.6385648354832942,0,0,2.6385648354832942,81.88154662961509,67.00513730048374)" fill="#fff"><path d="M13.474 6.441000000000001 c0.18661 0 0.40712 0.15238 0.28847 0.38966 l-6.2203 13 c-0.067797 0.13559 -0.20339 0.25407 -0.37288 0.25407 l-0.13559 0 c-0.15254 0 -0.28814 -0.11848 -0.35593 -0.25407 l-6.2203 -13.017 c-0.11881 -0.22017 0.10153 -0.37271 0.28797 -0.37271 l2.2203 0 c0.16949 0 0.25424 0.15254 0.33898 0.33898 l3.7966 8.3559 l3.8136 -8.3559 c0.084746 -0.18644 0.15238 -0.33898 0.33898 -0.33898 l2.2202 0 z"/></g><g id="SvgjsG5790" featureKey="nameRightFeature-0" transform="matrix(2.6093045593784243,0,0,2.6093045593784243,122.96337533521182,67.50433981623797)" fill="#fff"><path d="M17.169525423728814 6.441000000000001 c0.11864 0 0.20356 0.067631 0.20356 0.18627 l0 13.186 c0 0.11881 -0.084746 0.18644 -0.20339 0.18644 l-0.35593 0 c-0.25441 0 -0.49169 -0.16933 -0.81373 -0.52525 l-8.9153 -10.525 l0 10.831 c0 0.13559 -0.084746 0.22017 -0.22034 0.22017 l-0.88136 0 c-0.15254 0 -0.22034 -0.08458 -0.22034 -0.22017 l0 -13.136 c0 -0.11864 0.067797 -0.20339 0.20339 -0.20339 l0.55932 0 c0.11864 0 0.20339 0.050847 0.32203 0.18644 l9.2034 10.932 l0 -10.932 c0 -0.11864 0.067797 -0.18644 0.18644 -0.18644 l0.9322 0 z M31.15206779661017 14.5424 c0.16949 0 0.23746 0.067631 0.23746 0.23712 l0 3.0678 l-0.016949 0 c0 0.067797 -0.050847 0.16949 -0.13559 0.25424 c-1.2544 1.2542 -2.8814 2.0168 -4.8983 2.0168 c-3.8136 0 -6.9322 -3.0168 -6.9322 -6.8812 c0 -3.8475 3.1186 -6.9153 6.9322 -6.9153 c1.9322 0 3.661 0.74576 4.9322 2.0169 c0.15254 0.15254 0.16949 0.27119 0.067797 0.35593 l-0.71186 0.59322 c-0.11864 0.10169 -0.22034 0.10169 -0.33898 -0.016949 c-0.71186 -0.74559 -2.1186 -1.6608 -3.8475 -1.6608 c-3.678 0 -5.7119 2.9831 -5.7119 5.6271 c0 2.678 2.0339 5.5932 5.7119 5.5932 c1.5932 0 2.8475 -0.74576 3.61 -1.4407 l0 -1.5763 l-3.5763 0 c-0.15254 0 -0.22034 -0.067797 -0.22034 -0.20339 l0 -0.83051 c0 -0.16949 0.067797 -0.23729 0.22034 -0.23729 l4.678 0 z M44.847440677966105 17.729 c0.11864 0.08458 0.084746 0.22017 -0.067797 0.37271 c-1.2544 1.2542 -2.8814 2.0168 -4.8983 2.0168 c-3.8136 0 -6.9322 -3.0168 -6.9322 -6.8812 c0 -3.8475 3.1186 -6.9153 6.9322 -6.9153 c1.9322 0 3.661 0.74576 4.9322 2.0169 c0.15254 0.15254 0.16949 0.27119 0.067797 0.35593 l-0.71186 0.59322 c-0.11864 0.10169 -0.22034 0.10169 -0.33898 -0.016949 c-0.71186 -0.74559 -2.1186 -1.6608 -3.8475 -1.6608 c-3.678 0 -5.7119 2.9831 -5.7119 5.6271 c0 2.678 2.0339 5.5932 5.7119 5.5932 c1.7288 0 3.0508 -0.88136 3.7966 -1.6271 c0.13559 -0.13559 0.23729 -0.16949 0.35593 -0.067797 z M53.30513389830509 20.11864 c3.8305 0 6.9492 -3.0337 6.9492 -6.8981 c0 -3.8475 -3.1186 -6.8983 -6.9492 -6.8983 c-3.8475 0 -6.9661 3.0508 -6.9661 6.8983 c0 3.8644 3.1186 6.8981 6.9661 6.8981 z M53.30513389830509 18.8307 c-3.0847 0 -5.6441 -2.5085 -5.6441 -5.6102 s2.5593 -5.6102 5.6441 -5.6102 c3.0846 0 5.61 2.5085 5.61 5.6102 s-2.5254 5.6102 -5.61 5.6102 z M69.42358644067797 12.932400000000001 c1.5932 0.52542 2.5254 1.8646 2.5254 3.4068 c0 2.1695 -1.8983 3.6608 -4.1356 3.6608 l-5.3898 0 c-0.15238 0 -0.22017 -0.08458 -0.22017 -0.22017 l0 -13.119 c0 -0.15254 0.067797 -0.22034 0.22017 -0.22034 l5.1017 0 c2.2034 0 3.7288 1.6949 3.7288 3.5085 c0 1.4237 -0.77966 2.4915 -1.8305 2.9831 z M67.23708644067797 12.5258 c3.4746 0 3.5763 -4.7966 0.067797 -4.7966 l-3.7627 0 l0 4.7966 l3.6949 0 z M67.55928644067797 18.7122 c4.0508 0 4.0678 -4.9322 -0.033898 -4.9322 l-3.9831 0 l0 4.9322 l4.0169 0 z M80.81360847457628 20.11864 c3.8305 0 6.9492 -3.0337 6.9492 -6.8981 c0 -3.8475 -3.1186 -6.8983 -6.9492 -6.8983 c-3.8475 0 -6.9661 3.0508 -6.9661 6.8983 c0 3.8644 3.1186 6.8981 6.9661 6.8981 z M80.81360847457628 18.8307 c-3.0847 0 -5.6441 -2.5085 -5.6441 -5.6102 s2.5593 -5.6102 5.6441 -5.6102 c3.0846 0 5.61 2.5085 5.61 5.6102 s-2.5254 5.6102 -5.61 5.6102 z"/></g>
			</g>
		</svg>
	